<svg width="48" height="49" viewBox="0 0 48 49" fill="none" xmlns="http://www.w3.org/2000/svg">
<g filter="url(#filter0_d_577_413)">
<path d="M42.1013 12.3829C41.3558 10.6238 40.3691 8.9844 39.1715 7.5151C37.401 5.27825 35.1916 3.45367 32.6886 2.16146C30.1857 0.869246 27.4459 0.1387 24.6496 0.0179001C21.8533 -0.1029 19.0639 0.388783 16.465 1.46059C13.8661 2.5324 11.5167 4.16004 9.57129 6.23637C7.62589 8.3127 6.12865 10.7907 5.17813 13.5071C4.2276 16.2236 3.84534 19.117 4.05649 21.9969C4.26765 24.8769 5.06744 27.678 6.40323 30.2159C7.73901 32.7539 9.5805 34.9712 11.8065 36.7218C13.2348 37.8675 14.8131 38.7989 16.4943 39.4883C18.8514 40.4851 21.3741 40.9985 23.9215 41C29.1797 40.988 34.2189 38.8251 37.9343 34.9853C41.6497 31.1455 43.7382 25.9422 43.7421 20.516C43.7459 17.7171 43.1873 14.9477 42.1013 12.3829V12.3829ZM23.9069 4.17416C26.1944 4.17391 28.4544 4.68987 30.5284 5.6859V5.6859C30.0226 5.9114 29.4909 6.0689 28.9462 6.15454C27.154 6.42226 25.4938 7.2809 24.2133 8.60229C22.9328 9.92369 22.1007 11.637 21.8413 13.4864C21.7274 14.5237 21.2703 15.4886 20.547 16.2184C19.8238 16.9483 18.8787 17.3983 17.8713 17.4925C16.0791 17.7603 14.4189 18.6189 13.1384 19.9403C11.8579 21.2617 11.0258 22.975 10.7664 24.8244C10.6786 25.8107 10.2708 26.7375 9.6091 27.4549V27.4549C8.46741 24.9654 7.95453 22.2184 8.11819 19.4695C8.28186 16.7205 9.11674 14.0589 10.5451 11.7325C11.9736 9.40597 13.9491 7.49018 16.2878 6.16338C18.6266 4.83657 21.2526 4.14188 23.9215 4.14393L23.9069 4.17416ZM11.7919 31.0981C11.9676 30.9319 12.1434 30.7807 12.3192 30.5993C13.6225 29.2953 14.4591 27.5741 14.6924 25.7164C14.787 24.6721 15.2388 23.6968 15.9669 22.965C16.6675 22.2124 17.6105 21.7501 18.6184 21.6649C20.4107 21.3972 22.0709 20.5386 23.3514 19.2172C24.6319 17.8958 25.4639 16.1825 25.7234 14.333C25.7867 13.2408 26.2409 12.2118 26.9979 11.4456C27.7158 10.7077 28.6678 10.2621 29.6787 10.1909C31.3252 9.9571 32.8607 9.20176 34.0735 8.02909C35.4544 9.21137 36.6244 10.6336 37.5307 12.2317C37.4751 12.3093 37.4112 12.3803 37.3403 12.4434C36.641 13.2025 35.6992 13.6751 34.6888 13.7737C32.8947 14.0367 31.232 14.8938 29.9506 16.2161C28.6693 17.5384 27.8387 19.2542 27.5838 21.1056C27.4806 22.1463 27.0319 23.1182 26.3137 23.8566C25.5955 24.5949 24.652 25.0544 23.6432 25.157C21.8457 25.4227 20.1793 26.2796 18.8914 27.6005C17.6035 28.9214 16.7628 30.6357 16.4943 32.4889C16.4154 33.2278 16.1696 33.9372 15.7765 34.56C14.2734 33.6391 12.9273 32.4696 11.7919 31.0981V31.0981ZM23.9069 36.9334C22.4203 36.9351 20.941 36.7214 19.5121 36.2985C20.0008 35.3582 20.3186 34.3335 20.4496 33.275C20.5523 32.2366 20.9989 31.2666 21.7141 30.5285C22.4293 29.7904 23.3694 29.3295 24.3756 29.2236C26.1705 28.9589 27.8341 28.1016 29.1174 26.7799C30.4008 25.4583 31.235 23.7433 31.4952 21.8917C31.5979 20.8533 32.0445 19.8832 32.7597 19.1451C33.4749 18.4071 34.415 17.9462 35.4212 17.8402C36.7719 17.6589 38.0593 17.14 39.1715 16.3285C39.789 18.7441 39.8622 21.2736 39.3853 23.7229C38.9085 26.1722 37.8943 28.4763 36.4205 30.4583C34.9468 32.4403 33.0527 34.0477 30.8835 35.157C28.7143 36.2663 26.3278 36.8481 23.9069 36.8579V36.9334Z" fill="#F2726F"/>
</g>
<defs>
<filter id="filter0_d_577_413" x="0" y="0" width="47.7422" height="49" filterUnits="userSpaceOnUse" color-interpolation-filters="sRGB">
<feFlood flood-opacity="0" result="BackgroundImageFix"/>
<feColorMatrix in="SourceAlpha" type="matrix" values="0 0 0 0 0 0 0 0 0 0 0 0 0 0 0 0 0 0 127 0" result="hardAlpha"/>
<feOffset dy="4"/>
<feGaussianBlur stdDeviation="2"/>
<feComposite in2="hardAlpha" operator="out"/>
<feColorMatrix type="matrix" values="0 0 0 0 0 0 0 0 0 0 0 0 0 0 0 0 0 0 0.25 0"/>
<feBlend mode="normal" in2="BackgroundImageFix" result="effect1_dropShadow_577_413"/>
<feBlend mode="normal" in="SourceGraphic" in2="effect1_dropShadow_577_413" result="shape"/>
</filter>
</defs>
</svg>
