<svg width="30" height="31" viewBox="0 0 30 31" fill="none" xmlns="http://www.w3.org/2000/svg">
<path d="M14.9111 3.09497C8.10586 3.09497 2.56934 8.63149 2.56934 15.4367V20.5499C2.56934 21.8137 3.67639 22.8418 5.03769 22.8418H6.27187C6.59919 22.8418 6.91311 22.7118 7.14456 22.4803C7.37602 22.2489 7.50605 21.935 7.50605 21.6076V15.2603C7.50605 14.9329 7.37602 14.619 7.14456 14.3876C6.91311 14.1561 6.59919 14.0261 6.27187 14.0261H5.15123C5.83744 9.24981 9.94725 5.56333 14.9111 5.56333C19.875 5.56333 23.9848 9.24981 24.671 14.0261H23.5504C23.223 14.0261 22.9091 14.1561 22.6777 14.3876C22.4462 14.619 22.3162 14.9329 22.3162 15.2603V22.8418C22.3162 24.2031 21.2091 25.3102 19.8478 25.3102H17.3795V24.076H12.4428V27.7785H19.8478C22.5704 27.7785 24.7845 25.5644 24.7845 22.8418C26.1458 22.8418 27.2529 21.8137 27.2529 20.5499V15.4367C27.2529 8.63149 21.7164 3.09497 14.9111 3.09497Z" fill="white"/>
</svg>
