<svg width="30" height="31" viewBox="0 0 30 31" fill="none" xmlns="http://www.w3.org/2000/svg">
<g clip-path="url(#clip0_846_1812)">
<path d="M17.82 27.3509L15 30.1709L12.18 27.3509C6.6375 26.0709 2.5 21.1009 2.5 15.1709C2.5 8.2709 8.1 2.6709 15 2.6709C21.9 2.6709 27.5 8.2709 27.5 15.1709C27.5 21.1009 23.3625 26.0709 17.82 27.3509ZM7.52875 19.4409C9.36375 22.1784 12.1187 23.9209 15.2 23.9209C18.28 23.9209 21.0362 22.1796 22.87 19.4409C20.7897 17.4966 18.0474 16.4169 15.2 16.4209C12.3521 16.4166 9.60939 17.4963 7.52875 19.4409ZM15 13.9209C15.9946 13.9209 16.9484 13.5258 17.6517 12.8225C18.3549 12.1193 18.75 11.1655 18.75 10.1709C18.75 9.17634 18.3549 8.22251 17.6517 7.51925C16.9484 6.81599 15.9946 6.4209 15 6.4209C14.0054 6.4209 13.0516 6.81599 12.3483 7.51925C11.6451 8.22251 11.25 9.17634 11.25 10.1709C11.25 11.1655 11.6451 12.1193 12.3483 12.8225C13.0516 13.5258 14.0054 13.9209 15 13.9209Z" fill="white"/>
</g>
<defs>
<clipPath id="clip0_846_1812">
<rect width="30" height="30" fill="white" transform="translate(0 0.170898)"/>
</clipPath>
</defs>
</svg>
